<?xml version="1.0" encoding="UTF-8"?>
<svg id="Layer_1" data-name="Layer 1" xmlns="http://www.w3.org/2000/svg" viewBox="0 0 1920 1080">
  <defs>
    <style>
      .cls-1 {
        fill: #fbfdfe;
      }

      .cls-1, .cls-2, .cls-3, .cls-4, .cls-5, .cls-6 {
        stroke-width: 0px;
      }

      .cls-2 {
        fill: #ec1e78;
      }

      .cls-3 {
        fill: #00b7ee;
      }

      .cls-4 {
        fill: #010101;
      }

      .cls-5 {
        fill: #fafdfe;
      }

      .cls-6 {
        fill: #faec21;
      }
    </style>
  </defs>
  <path class="cls-4" d="m859.32,310.36c1-1.14,2.05-2.37,3.15-3.57,10.81-11.74,24.03-17.99,40.15-17.99,92.16.04,184.32.02,276.48.02h5.8v-39.42c1.85-.1,3.29-.23,4.74-.23,59.33-.01,118.66-.05,177.98.12,2.44,0,5.46,1.36,7.21,3.09,22.87,22.61,45.53,45.44,68.36,68.1,2.45,2.44,3.39,4.85,3.39,8.28-.09,83.99-.07,167.98-.07,251.98v6.42c5.61,0,10.91-.25,16.18.12,2.22.16,4.89,1.08,6.42,2.59,23.33,23.09,46.54,46.32,69.65,69.63,1.44,1.46,2.63,3.93,2.64,5.94.15,48.33.11,96.66.1,144.99,0,1.14-.17,2.27-.29,3.74h-5.13c-90.49,0-180.98-.02-271.48.08-3.63,0-6.13-1.01-8.68-3.58-18.39-18.61-36.99-37.01-55.39-55.61-2.54-2.57-5.05-3.63-8.69-3.62-84.66.11-169.32.11-253.98-.02-4.04,0-6.06,1.22-7.87,4.84-18.84,37.63-47.58,63.85-88.95,74.19-38.48,9.62-74.55,1.8-108.34-17.96-21.22-12.41-39.04-28.81-54.59-47.76-11.45-13.96-25.16-24.86-42.88-29.44-27.29-7.05-49.66,2.46-68.64,21.86-3.48,3.55-6.37,7.68-9.52,11.55-.84,1.03-1.56,2.16-2.41,3.18-11.18,13.43-21.29,14.43-33.76,2.26-19.68-19.2-38.93-38.84-58.27-58.38-5.98-6.04-6.06-13.88-4.01-21.12,3.2-11.3,7.68-22.23,11.64-33.32.33-.93.77-1.81,1.14-2.67-7.74-6.97-15.71-13.55-22.98-20.82-23.56-23.55-48.26-46.15-69.95-71.33-32.65-37.89-49.79-82.53-48.39-133.24.5-18.13,5.68-35.27,12.43-52.09,23.41-58.34,67.49-95,123.66-119.29,33.24-14.37,68.34-21.83,103.78-27.84,32.99-5.59,66.21-6.59,99.52-3.06,21.39,2.26,42.39,6.39,62.96,12.74,20.14,6.22,40.49,11.74,59.46,21.29,24.03,12.11,46.68,26.19,66.23,44.89.21.2.59.23,1.2.46Zm-148.54,323.9c17.55-5.06,35.47-9.42,52.84-15.4,33.75-11.61,64.05-29.27,89.1-55.06,27.43-28.23,43.08-62.06,46.92-101.24.17-1.76-1.26-4.39-2.77-5.48-7.96-5.75-16.26-11.02-24.3-16.66-15.39-10.78-23.38-25.63-23.55-44.44-.16-17.83-.11-35.66.02-53.49.03-4.13.34-8.38,1.38-12.35.78-3.01-.15-4.55-2.11-6.43-19.03-18.32-40.78-32.6-64.69-43.66-49.91-23.09-102.84-31.35-157.33-31.43-27.34-.04-54.52,2.26-81.43,7.33-39.75,7.49-77.7,20-111.73,42.32-60.09,39.43-90.54,93.81-82.13,166.99,4.16,36.17,18.87,67.73,43.46,94.55,28.45,31.04,64.17,50.27,103.75,63.08,4.47,1.45,8.97,2.78,13.65,4.23-22.86,30.13-40.13,66.91-35.93,77.31,1.93-2.12,3.7-4.02,5.42-5.97,5.39-6.12,10.35-12.68,16.2-18.31,30.42-29.28,76.16-36.91,112.48-5.78,12.63,10.82,24.06,23.02,36.32,34.28,8.94,8.21,17.87,16.57,27.63,23.73,27.71,20.33,59.02,28.35,92.93,23.06,38.25-5.97,64.28-29.3,82.95-61.98.54-.94,1.03-2.19.87-3.18-.35-2.19-1.65-4.3-1.67-6.45-.14-17.66-.08-35.33-.09-52.99,0-1.4-.12-2.79-.21-4.61-29.99,31.55-102.61,33.74-138,8.02Zm155.21,39.09c1.34.07,2.15.15,2.97.15,99.66,0,199.31.09,298.97-.05,23.66-.03,39.06-16.14,39.07-39.94,0-28.5-.19-57,.08-85.49.16-16.31-6.44-28.22-20.24-36.96-60.72-38.44-121.28-77.14-181.89-115.76-1.17-.74-2.25-1.63-4.32-3.15h206.13v-87h-117.09c-60.99,0-121.99.27-182.98-.12-27.25-.18-42.3,20.47-41.05,40.7,1.01,16.27.33,32.65.17,48.98-.14,14.21,5.91,24.89,17.54,32.75,75,50.71,149.99,101.44,224.97,152.18,1.13.76,2.16,1.67,4.34,3.37h-246.65v90.34Zm339.17-264.39c0,31.3-.04,61.78.11,92.26,0,1.67,1.35,3.65,2.62,4.95,10.39,10.66,15.61,23.31,15.57,38.23-.07,30.33-.13,60.65.02,90.98.08,15.31-5.22,28.21-15.76,39.2-1.42,1.48-2.38,3.97-2.46,6.03-.28,7.82-.11,15.66-.11,23.49,0,4.93,0,9.87,0,14.75h241.04v-111.48h-94.73v-337.62h-146.04v19.07h17.75v120.13h-18.03Zm-227.45,122.65c-2.56,11.75-5.02,22.99-7.45,34.17h58.74c-17.71-11.8-34.37-22.9-51.28-34.17Zm207.12-60.76h-30.22c10.68,6.7,20.24,12.7,30.22,18.96v-18.96Z"/>
  <path class="cls-2" d="m710.78,634.27c35.4,25.72,108.01,23.54,138-8.02.09,1.82.21,3.21.21,4.61.01,17.66-.05,35.33.09,52.99.02,2.15,1.31,4.26,1.67,6.45.16.99-.33,2.24-.87,3.18-18.67,32.68-44.7,56.01-82.95,61.98-33.91,5.29-65.22-2.74-92.93-23.06-9.76-7.16-18.69-15.52-27.63-23.73-12.26-11.26-23.7-23.46-36.32-34.28-36.32-31.12-82.05-23.49-112.48,5.78-5.85,5.63-10.81,12.19-16.2,18.31-1.72,1.95-3.49,3.84-5.42,5.97-4.2-10.4,13.07-47.18,35.93-77.31-4.68-1.45-9.19-2.79-13.65-4.23-39.58-12.8-75.3-32.04-103.75-63.08-24.59-26.82-39.3-58.38-43.46-94.55-8.41-73.18,22.04-127.57,82.13-166.99,34.03-22.32,71.97-34.83,111.73-42.32,26.91-5.07,54.09-7.37,81.43-7.33,54.49.08,107.42,8.34,157.33,31.43,23.91,11.06,45.66,25.34,64.69,43.66,1.95,1.88,2.89,3.42,2.11,6.43-1.04,3.97-1.34,8.22-1.38,12.35-.14,17.83-.18,35.66-.02,53.49.17,18.82,8.16,33.66,23.55,44.44,8.04,5.64,16.34,10.91,24.3,16.66,1.51,1.09,2.94,3.72,2.77,5.48-3.85,39.18-19.5,73.01-46.92,101.24-25.06,25.79-55.36,43.45-89.1,55.06-17.37,5.98-35.3,10.34-52.84,15.4Zm-85.51-323.37c-26.7.28-47.6,11.2-62.55,33.3-12.81,18.94-18.52,40.39-21.69,62.64-3.84,27.02-3.7,54.13-.85,81.21,2.38,22.61,7.34,44.52,17.49,65.17,28.31,57.62,101.29,48.5,127.11,8.95,13.09-20.05,19.17-42.25,22.19-65.56,3.32-25.54,3.18-51.16.86-76.75-1.93-21.29-5.82-42.21-14.78-61.83-13.28-29.09-34.62-46.67-67.77-47.14Z"/>
  <path class="cls-6" d="m865.99,673.36v-90.34h246.65c-2.18-1.7-3.21-2.61-4.34-3.37-74.98-50.74-149.97-101.47-224.97-152.18-11.63-7.86-17.68-18.54-17.54-32.75.16-16.33.84-32.71-.17-48.98-1.26-20.23,13.79-40.88,41.05-40.7,60.99.4,121.99.12,182.98.12h117.09v87h-206.13c2.08,1.52,3.16,2.41,4.32,3.15,60.61,38.62,121.17,77.31,181.89,115.76,13.8,8.74,20.4,20.65,20.24,36.96-.27,28.49-.07,56.99-.08,85.49,0,23.79-15.4,39.9-39.07,39.94-99.66.14-199.31.06-298.97.05-.81,0-1.63-.08-2.97-.15Z"/>
  <path class="cls-3" d="m1205.16,408.98h18.03v-120.13h-17.75v-19.07h146.04v337.62h94.73v111.48h-241.04c0-4.88,0-9.81,0-14.75,0-7.83-.17-15.67.11-23.49.07-2.06,1.04-4.56,2.46-6.03,10.55-10.99,15.84-23.89,15.76-39.2-.16-30.33-.1-60.65-.02-90.98.04-14.92-5.18-27.57-15.57-38.23-1.27-1.3-2.61-3.28-2.62-4.95-.16-30.48-.11-60.96-.11-92.26Zm71.14-63.12c11.26.07,20.44-8.87,20.55-20.03.11-11.01-9.34-20.52-20.27-20.41-11.36.12-20.14,8.99-20.18,20.38-.04,10.99,8.88,19.98,19.9,20.06Zm.3,112.15c11.26-.03,20.35-9.13,20.25-20.28-.1-11.31-9.04-19.96-20.56-19.89-11.18.07-19.81,8.72-19.89,19.96-.08,11.27,8.89,20.25,20.2,20.22Zm-.19,112.16c11.29.08,20.41-8.87,20.44-20.07.03-11.01-8.86-20.01-19.87-20.11-11.49-.1-20.46,8.53-20.58,19.79-.12,11.42,8.6,20.3,20.01,20.38Zm77.43,92.32c.09,10.99,9.16,20.08,20,20.06,11.27-.03,20.3-9.03,20.3-20.26,0-11.26-9.06-20.34-20.26-20.27-11.24.06-20.14,9.16-20.05,20.48Zm-97.44-.56c-.12,11.31,8.7,20.43,19.94,20.64,10.93.2,20.46-9.18,20.5-20.19.05-11.07-9.2-20.34-20.31-20.36-10.92-.02-20.02,8.98-20.13,19.91Z"/>
  <path class="cls-4" d="m625.27,310.9c33.15.46,54.49,18.04,67.77,47.14,8.96,19.63,12.85,40.54,14.78,61.83,2.32,25.59,2.46,51.21-.86,76.75-3.03,23.3-9.1,45.51-22.19,65.56-25.82,39.55-98.79,48.66-127.11-8.95-10.15-20.66-15.11-42.56-17.49-65.17-2.85-27.08-2.99-54.19.85-81.21,3.17-22.26,8.88-43.71,21.69-62.64,14.95-22.09,35.86-33.02,62.55-33.3Zm61.9,77.32c-7.47,1.75-13.24,2.64-18.7,4.46-22.2,7.37-34.84,24.02-42.54,45.09-9.25,25.31-10.86,51.73-9.5,78.24,1.04,20.34,3.79,40.59,5.81,61.19,19.48-.91,35.56-6.3,45.77-22.27,5.58-8.73,10.38-18.23,13.82-27.99,9.99-28.32,12.38-57.79,10.39-87.58-1.12-16.71-3.26-33.35-5.06-51.14Z"/>
  <path class="cls-5" d="m1276.3,345.85c-11.01-.07-19.93-9.06-19.9-20.06.04-11.39,8.82-20.26,20.18-20.38,10.93-.12,20.38,9.39,20.27,20.41-.11,11.16-9.29,20.1-20.55,20.03Z"/>
  <path class="cls-1" d="m1276.6,458.01c-11.31.03-20.28-8.95-20.2-20.22.08-11.23,8.71-19.89,19.89-19.96,11.52-.07,20.46,8.58,20.56,19.89.1,11.14-8.99,20.25-20.25,20.28Z"/>
  <path class="cls-5" d="m1276.41,570.17c-11.41-.08-20.12-8.96-20.01-20.38.12-11.26,9.09-19.89,20.58-19.79,11.01.09,19.9,9.1,19.87,20.11-.03,11.19-9.15,20.14-20.44,20.07Z"/>
  <path class="cls-1" d="m1353.84,662.48c-.09-11.32,8.81-20.41,20.05-20.48,11.19-.06,20.26,9.01,20.26,20.27,0,11.23-9.03,20.24-20.3,20.26-10.84.02-19.91-9.07-20-20.06Z"/>
  <path class="cls-5" d="m1256.4,661.92c.11-10.94,9.21-19.94,20.13-19.91,11.12.02,20.36,9.29,20.31,20.36-.05,11.01-9.57,20.39-20.5,20.19-11.24-.2-20.06-9.32-19.94-20.64Z"/>
</svg>