<?xml version="1.0" encoding="UTF-8"?>
<svg id="Layer_1" data-name="Layer 1" xmlns="http://www.w3.org/2000/svg" version="1.1" viewBox="0 0 1920 1920">
	<defs>
		<style>
			.shadow {fill: #000;stroke-width: 0px;}

			.text {stroke: #000000;stroke-width: 10;stroke-miterlimit: 10;}
			.text-pink {fill: #ed1e79;}
			.text-yellow {fill: #fcee21;}
			.text-cyan {fill: #00b9f1;}

			.light {fill: #FFFFFF;}
		</style>
	</defs>
	<g id="shadow">
		<path id="sHow_shadow" class="shadow"
		      d="M1002.1,944c-16.7-13.9-36.5-45.3-58.1-46.1v-4.2l-37.3-37.3h-73.5v225.4l37.3,37.3h139.9v-153.5c0-10.8-4.2-17.5-8.4-21.6h0Z"/>
		<path id="shoW_shadow" class="shadow"
		      d="M1348.4,880.4h-61c-2.4,8-8.2,27.6-10.7,35.9h-.4l-35.4-35.9h-49.5c-2.3,8.2-7.8,28.1-10.1,36.6l-36.1-36.6h-60.5c4.4,14.5,52.5,175.6,57.9,193.6l2.1,7.1c.2.7,37.7,36.3,37.3,37.3h52c2.2-7.9,6.8-24.3,9-32.4h.2l30.5,31,1.4,1.4h50.5c7.3-24.4,53.1-177.7,60-200.8l-37.3-37.3h0Z"/>
		<path id="quiZ_shadow" class="shadow"
		      d="M1370.4,634.5l-37.3-37.3h-163.6v81.3l38.8,37.3-45.8,151.5-3.9,12.9,37.3,37.3h164.6v-81.3l-39.3-39,45.3-149.8,3.9-12.9h0Z"/>
		<path id="qUiz_shadow" class="shadow"
		      d="M1121.1,668c-2.3-13.1-2.6-32.8-8.2-37.8-12.2-12.2-24.4-24.4-36.6-36.6-6.5-6-12.5-3.8-26.6-4.6-7.1,0-23.9-.3-30.8-.4,3.6,20.9,3,34.1,2.7,68.4-12.1-11.4-22.7-24.2-35.7-34.8-2.3-1.4-5.9-3.3-12.6-6.7-11.3-5.6-17.8-8.5-19.6-8.5-6.6,0-9.2,5.6-10.4,8.2-33.2,80.9-56.9,174.3,4.4,229.5,28.4,28.3,53.5,62.7,98.3,50.7,84.9-26,84.4-145.4,75-227.5h0Z"/>
		<path id="Quiz_shadow" class="Quiz shadow"
		      d="M949.4,809.8c-1.4-6-6.2-8.4-9.9-12.6,44.5-49.5,33.1-125.9-17.8-166.6-27.9-29.9-56.2-54.7-98-65.8-71.3-18.9-148.6-6.2-198.6,29.5s-77.3,108.9-2,185.9c11.7,12,22.9,24.3,36.3,34.6-3.5,9.9-12.6,23.5-6.2,34.1,9.7,9.9,19.6,19.6,29.4,29.4,9.9,10.7,17.3,18.4,28.1,4.1,19.8-28.5,51.4-29.5,73.1-4.3,65.6,81.8,172,42.5,165.5-68.3h0ZM751.4,765.4c-6.3-34.6-13.2-110.4,38.3-114.5,10.5,39.4,3.7,118.9-38.3,114.5Z"/>
		<path id="quIz_shadow" class="shadow"
		      d="M1182.2,555.6h-103.9v24l12.6,12.1c-.4,4.1.8,226.3-.4,230.2-.6,1-10.1,3.5-12.2,4.2v24l37.3,37.3h103.9v-24.1l-12.6-12.1c.5-4.1-.9-226.4.4-230.2.5-1,10.1-3.2,12.2-3.8v-24.2l-37.3-37.3h0Z"/>
		<path id="shOw_shadow" class="shadow"
		      d="M1142.1,885.5c-12.2-12.2-24.4-24.4-36.6-36.6-4.6-4.8-11.2-7.4-19.6-7.4h-88.6c-17.2,0-27.5,10.4-27.5,27.8v202.3c0,9,2.7,16,7.7,20.8,10.3,10.3,20.6,20.6,31,31,7,7.7,13.6,13.6,26.1,13.3h89.2c16.2,0,25.9-10,25.9-26.9v-203.2c0-9.1-2.7-16.3-7.7-21h0Z"/>
		<path id="Show_shadow" class="shadow"
		      d="M839,854.4h-194.9c-18,0-32.6,14.6-32.6,32.6,1,15.9-4.5,44.5,10,55.9,12.2,12.2,24.4,24.4,36.6,36.6,2,3.5,59,40,63.1,43.5h-109.7v75.2l37.3,37.3h194.9c45.3-.9,30.3-60,32.6-88.6.5-18.7-16.6-29-27.8-41.3-6.3-6.3-12.7-12.7-19-19-3.2-3.9-28.6-18.8-33-22h79.8v-73l-37.3-37.3h0Z"/>
		<path id="lIve_shadow" class="shadow" d="M845.5,1081.6h-93v244.5l37.3,37.3h93v-244.5l-37.3-37.3Z"/>
		<path id="Live_shadow" class="shadow"
		      d="M752.1,1250.3h-10.1v-131.4l-37.3-37.3h-93v244.5l37.3,37.3h140.4v-75.8l-37.3-37.3h0Z"/>
		<path id="liVe_shadow" class="shadow"
		      d="M1044.7,1081.6h-93.5c-.6,4.3-1.9,13-2.5,17.3v-.4c0,0-17-16.9-17-16.9h-93c1.1,7,38.1,235.6,39.5,244.5h.6v.7h.7v.7h.7v.7h.7v.7h.7v.7h.7v.7h.7v.7h.7v.7h.7v.7h.7v.7h.7v.7h.7v.7h.7v.7h.7v.7h.7v.7h.7v.7h.7v.7h.7v.7h.7v.7h.7v.7h.7v.7h.7v.7h.7v.7h.7v.7h.7v.7h.7v.7h.7v.7h.7v.7h.7v.7h.7v.7h.7v.7h.7v.7h.7v.7h.7v.7h.7v.7h.7v.7h.7v.7h.7v.7h.7v.7h.7v.7h.7v.7h.7v.7h.7v.7h.7v.7h.7v.7h.7v.7h.7v.7h.7v.7h.7v.7h.7v.7h.7v.7h.7v.7h.7v.7h126.5c1.4-8.7,38.9-237.6,40-244.5l-37.3-37.3h0Z"/>
		<path id="livE_shadow" class="shadow"
		      d="M1244.1,1130.6c-13.4-13.1-26.4-26.9-40.1-39.7-7.9-6.2-18.9-9.2-33.4-9.2h-91.2c-14.5,0-25.4,3-33.4,9.2-5.9,4.6-12.9,13.4-12.9,29.1v168.2c0,13.1,5,21.4,10.1,26.3,13.4,13.2,26.4,27,40.2,39.8,7.9,6.1,18.8,9,33.3,9h91.2c14.5,0,25.4-3,33.3-9,19.2-12.3,11.6-50,13-70.9,0-3.6,0-118.5,0-126.2,0-13.3-5-21.7-10.2-26.7h0Z"/>
		<path id="exclam_shadow" class="shadow" d="M1308.6,1081.6h-93v244.5l37.3,37.3h93v-244.5l-37.3-37.3h0Z"/>
	</g>
	<g id="logo_fg">
		<path id="sHow" class="text text-yellow"
		      d="M904.7,1076.8v-123.1h-3v123.1h-63.5v-215.4h63.5v41.1h34.8c27.5,0,31.6,16.1,31.6,25.7v148.5h-63.5Z"/>
		<polygon id="shoW" class="text text-yellow"
		         points="1241.7 1076.2 1216.9 990.2 1193 1076.2 1148.6 1076.2 1091.5 885.4 1141.6 885.4 1169.7 978 1195.3 885.4 1237.2 885.4 1263.5 978.1 1291.2 885.4 1341.7 885.4 1284.7 1076.2 1241.7 1076.2"/>
		<polygon id="quiZ" class="text text-pink"
		         points="1165.4 875.3 1226.4 673.6 1174.6 673.6 1174.6 602.2 1326.4 602.2 1265.4 804 1318.3 804 1318.3 875.3 1165.4 875.3"/>
		<path id="qUiz" class="text text-pink"
		      d="M991.2,855.3c-11.5,0-22.4-3-32.4-8.9-6.4-3.8-19.8-16.6-24.3-23.3-7.1-10.5-13.4-25.6-16.2-38.5-7.9-37.1-1.2-85.1,19.8-142.7,2.1-5.8,4.7-12.5,7-18,3.9-9.5,4.9-11.7,8.6-11.7s6.8,2.6,17.4,7.9c6.5,3.2,10,5.1,12.2,6.5,1.7,1,6.1,3.8,4.8,8.3-3.6,12.1-8.7,32.7-11.2,44.9-4.1,19.9-5,28.4-5.1,45.5,0,15.6.1,17.3,1.6,21.9,1.8,5.7,5.8,12.6,14.2,12.6,2,0,4.1-.4,6.4-1.1,16.8-5.6,26.9-30.1,31.8-76.9,1.2-11.3,1.5-70.1.4-77.7l-1.5-10.4,25,.3c9.3.1,14.2.2,17,.5,1.9.2,6.3.6,7.4,5.4,1.1,4.7,3.1,18.2,4.8,31.4,11.5,92.2-.4,162.8-33.4,198.9-10.6,11.6-23.3,19.5-36.6,22.8l-4.5,1.1h0c-4.4.7-8.8,1.1-13.1,1.1h0Z"/>
		<path id="Quiz" class="Quiz text text-pink"
		      d="M828.7,879.7c-36.3,0-55.6-19.5-72.7-36.6-13.6-13.7-25.4-25.6-43.6-25.6s-34.7,13.4-42.9,24.6h-.1c-2.8,3.7-4.9,5.7-7.8,5.7h0c-1.7,0-3.3-.8-4.3-2.1-1.9-2.4-1.3-5.5-.6-8.5,3.5-14,10-27.6,18.6-38.8-26.9-8.4-49.5-21.9-65.7-39.2-19.5-21-29.4-46.6-29.4-76.2s17.4-67.3,50.4-89.6c31.2-21.1,75.1-32.7,123.6-32.7,100.7,0,171.1,51.2,171.1,124.5s-11.8,58.3-34.2,79.4c-18.2,17.2-42.8,29.8-71.9,37,7.2,2.7,14.7,4.1,21.9,4.1,36.5,0,47.4-14.4,53.7-29.9,1-2.6,2.8-7.2,7.2-7.2s6.1,7.2,6.1,9.7c.8,31.3-9.4,60.2-28,79.4-14,14.4-31.7,22.1-51,22.1h0ZM752.5,608.7c-14.1,0-25.4,6-33.5,17.8-9.4,13.6-14.1,34.2-14.1,61.2s5.9,82.9,45.2,82.9,27.8-6.3,36-19.2c8.5-13.4,12.7-33.4,12.7-59.7,0-37.8-8-82.9-46.2-82.9h0Z"/>
		<path id="quIz" class="text text-pink"
		      d="M1083.3,845.1v-15.2l3.6-1c4.9-1.4,6.7-2.9,7.4-3.7,1-1.2,1.6-3.3,1.6-6.2v-232.4c0-1.9-.3-4.5-1.6-6-.7-.8-2.5-2.3-7.4-3.7l-3.6-1v-15.2h93.9v15.3l-3.8,1c-4.8,1.2-6.6,2.7-7.2,3.5-1.1,1.3-1.6,3.3-1.6,6.2v232.4c0,2.9.6,5,1.6,6.3.8,1,2.8,2.4,7.2,3.6l3.7,1v15.3h-93.9,0Z"/>
		<path id="shOw" class="text text-yellow"
		      d="M997.3,1094.3c-14.5,0-22.5-8.1-22.5-22.8v-202.3c0-14.7,8-22.8,22.5-22.8h88.6c13.9,0,21.6,8.1,21.6,22.8v203.2c0,13.9-7.6,21.9-20.9,21.9h-89.2ZM1034.1,965.9c-2.8,0-3.3.5-3.3,3.3v90.4c0,4.2,1.3,4.2,3.3,4.2h15.9c1.1,0,1.7,0,1.7-3.3v-91.3c0-3.3-.7-3.3-1.7-3.3h-15.9Z"/>
		<path id="Show" class="text text-yellow"
		      d="M616.5,1093.2v-65.2h138.9l-126.7-85.7c-7.6-5.1-12.2-13.7-12.2-22.9v-32.4c0-15.2,12.4-27.6,27.6-27.6h189.9v63h-113.2l100.4,64c8,5.1,12.8,13.8,12.8,23.3v55.9c0,15.2-12.4,27.6-27.6,27.6h-189.9,0Z"/>
		<path id="lIve" class="text text-cyan"
		      d="M757.5,1321.1v-164.5h83v164.5h-83ZM757.5,1152.9v-66.2h83v66.2h-83Z"/>
		<polygon id="Live" class="text text-cyan"
		         points="616.7 1321.1 616.7 1086.6 699.7 1086.6 699.7 1255.3 747.1 1255.3 747.1 1321.1 616.7 1321.1"/>
		<polygon id="liVe" class="text text-cyan"
		         points="882.6 1321.1 844.7 1086.6 927.5 1086.6 941.7 1183.1 955.6 1086.6 1038.9 1086.6 1000.5 1321.1 882.6 1321.1"/>
		<path id="livE" class="text text-cyan"
		      d="M1079.5,1321.1c-34.1,0-41.3-17.9-41.3-32.9v-168.2c0-15.2,7.2-33.3,41.3-33.3h91.2c34.1,0,41.3,18.1,41.3,33.3v117h-90.8v18.3h7.7v-14.2h83v47.1c0,15-7.2,32.9-41.3,32.9h-91.2ZM1128.9,1170.7v-17.9h-7.7v17.9h7.7Z"/>
		<path id="exclam" class="text text-cyan"
		      d="M1220.5,1321.1v-65.8h83v65.8h-83ZM1220.5,1251.1v-164.5h83v164.5h-83Z"/>
	</g>
	<g id="lights">
		<!-- L -->
		<circle class="light light-group-1" cx="657" cy="1119" r="10"/>
		<circle class="light light-group-2" cx="657" cy="1176" r="10"/>
		<circle class="light light-group-3" cx="657" cy="1232" r="10"/>
		<circle class="light light-group-4" cx="657" cy="1288" r="10"/>
		<circle class="light light-group-1" cx="706" cy="1288" r="10"/>
		<!-- I -->
		<circle class="light light-group-2" cx="799" cy="1119" r="10"/>
		<circle class="light light-group-3" cx="799" cy="1191" r="10"/>
		<circle class="light light-group-4" cx="799" cy="1239" r="10"/>
		<circle class="light light-group-1" cx="799" cy="1287" r="10"/>
		<!-- V-->
		<circle class="light light-group-2" cx="892" cy="1117" r="10"/>
		<circle class="light light-group-3" cx="901" cy="1171" r="10"/>
		<circle class="light light-group-4" cx="911" cy="1224" r="10"/>
		<circle class="light light-group-1" cx="920" cy="1278" r="10"/>
		<circle class="light light-group-2" cx="967" cy="1278" r="10"/>
		<circle class="light light-group-3" cx="975" cy="1224" r="10"/>
		<circle class="light light-group-4" cx="984" cy="1171" r="10"/>
		<circle class="light light-group-1" cx="993" cy="1118" r="10"/>

		<!-- E -->
		<circle class="light light-group-2" cx="1125" cy="1200" r="10"/>
		<circle class="light light-group-3" cx="1173" cy="1199" r="10"/>
		<circle class="light light-group-4" cx="1174" cy="1157" r="10"/>
		<circle class="light light-group-1" cx="1173" cy="1114" r="10"/>
		<circle class="light light-group-2" cx="1126" cy="1114" r="10"/>
		<circle class="light light-group-3" cx="1078" cy="1115" r="10"/>
		<circle class="light light-group-4" cx="1078" cy="1171" r="10"/>
		<circle class="light light-group-1" cx="1077" cy="1228" r="10"/>
		<circle class="light light-group-2" cx="1077" cy="1284" r="10"/>
		<circle class="light light-group-3" cx="1124" cy="1285" r="10"/>
		<circle class="light light-group-4" cx="1171" cy="1284" r="10"/>
		<!-- ! -->
		<circle class="light light-group-1" cx="1263" cy="1121" r="10"/>
		<circle class="light light-group-2" cx="1263" cy="1169" r="10"/>
		<circle class="light light-group-3" cx="1263" cy="1217" r="10"/>
		<circle class="light light-group-4" cx="1263" cy="1289" r="10"/>
	</g>
</svg>
